<?xml version="1.0" standalone="no"?>
<!DOCTYPE svg PUBLIC "-//W3C//DTD SVG 20010904//EN"
 "http://www.w3.org/TR/2001/REC-SVG-20010904/DTD/svg10.dtd">
<svg version="1.0" xmlns="http://www.w3.org/2000/svg"
 width="500.000000pt" height="500.000000pt" viewBox="0 0 500.000000 500.000000"
 preserveAspectRatio="xMidYMid meet">
<metadata>
Created by potrace 1.11, written by Peter Selinger 2001-2013
</metadata>
<g transform="translate(0.000000,500.000000) scale(0.100000,-0.100000)"
fill="#000000" stroke="none">
<path d="M2517 4994 c-1 -1 -56 -4 -122 -8 -66 -3 -136 -8 -155 -11 -122 -16
-195 -29 -270 -47 -47 -11 -93 -21 -102 -23 -51 -11 -271 -90 -364 -132 -94
-42 -233 -115 -298 -156 -64 -40 -206 -137 -216 -147 -3 -3 -49 -40 -103 -84
-110 -87 -157 -149 -157 -205 0 -56 31 -147 103 -301 19 -41 94 -208 167 -370
73 -162 147 -328 166 -368 19 -40 34 -74 34 -76 0 -3 16 -40 36 -83 33 -71
152 -333 334 -738 37 -82 109 -242 160 -355 51 -113 116 -271 145 -352 l52
-146 -288 -1 c-296 -2 -347 3 -421 40 -79 40 -146 134 -218 304 -149 351 -190
446 -226 523 -24 51 -44 95 -44 97 0 3 -18 42 -39 87 -21 46 -107 232 -191
413 -131 286 -289 585 -309 585 -6 0 -17 -34 -65 -195 -51 -169 -90 -364 -113
-555 -10 -82 -10 -430 -1 -530 11 -119 54 -319 97 -447 152 -464 433 -874 822
-1198 104 -88 301 -213 447 -285 208 -103 342 -153 537 -200 l123 -30 449 0
c402 0 455 2 518 19 49 13 69 22 67 32 -3 14 -104 249 -147 344 -13 28 -78
176 -145 330 -137 314 -124 283 -254 573 -53 118 -96 215 -96 217 0 2 -21 47
-46 102 -25 54 -88 195 -139 313 -100 231 -122 280 -210 465 -124 261 -277
646 -263 660 4 5 35 9 118 19 219 27 356 26 430 -3 122 -47 152 -95 370 -586
77 -176 149 -338 159 -360 27 -59 619 -1389 654 -1470 52 -117 198 -405 207
-405 15 0 185 93 269 147 431 278 784 718 981 1225 l40 102 0 716 0 716 -39
80 c-22 43 -48 91 -58 107 l-19 27 -102 -207 c-55 -115 -183 -390 -282 -613
-161 -359 -272 -604 -359 -795 -15 -33 -49 -108 -75 -166 -48 -109 -84 -154
-140 -178 -23 -9 -112 -11 -374 -7 -190 3 -347 7 -349 10 -5 4 37 103 139 326
11 25 38 86 60 135 22 50 51 115 65 145 41 90 58 127 128 285 37 83 76 168 86
189 10 22 19 46 19 53 0 7 5 13 10 13 6 0 10 8 10 18 0 10 6 26 13 37 8 11 21
38 29 60 9 22 30 69 46 105 17 36 66 146 110 245 44 99 115 257 157 350 42 94
112 249 155 345 43 96 89 200 103 230 70 154 87 194 87 204 0 19 -136 161
-234 245 -281 241 -618 414 -996 511 -47 12 -96 24 -110 26 -24 4 -50 9 -100
19 -14 3 -47 8 -75 11 -27 2 -61 7 -75 9 -38 7 -307 23 -313 19z"/>
</g>
</svg>
